# xmcd CD database file
#
# Track frame offsets:
#	150
#	21525
#	42307
#
# Disc length: 847 seconds
#
# Revision: 0
# Processed by: cddbd v1.5PL3 Copyright (c) Steve Scherf et al.
# Submitted via: CDex 1.51
#
DISCID=22034d03
DTITLE=THE TELLOW MONKEY - 楽園
DYEAR=1996
DGENRE=Rock
TTITLE0=楽園
TTITLE1=見てないようで見てる
TTITLE2=楽園(Instrumental)
EXTD=YEAR: 1996
EXTT0=
EXTT1=
EXTT2=
PLAYORDER=
